<svg id="Layer_1" data-name="Layer 1" xmlns="http://www.w3.org/2000/svg" viewBox="0 0 46.4 48.29"><defs><style>.cls-1{opacity:0.4;}.cls-2{fill:#f7f7f7;}</style></defs><path class="cls-1" d="M395.94,278.54h0a2.48,2.48,0,0,0-1.8.79l-8.85,10.08a2.5,2.5,0,0,0-.62,2.26l1.34,9.14-7.46-2.18a2.37,2.37,0,0,0-.7-.1,2.5,2.5,0,0,0-2.49,2.36l-.67,11.46a2.51,2.51,0,0,0,.8,2l11.09,10.23a2.47,2.47,0,0,0,1.69.67h4.31a2.5,2.5,0,0,1,3.88,1.61h5.19a2.49,2.49,0,0,0,1.4-.43l15.65-10.57a2.48,2.48,0,0,0,1.09-1.82l1.29-12.5a2.51,2.51,0,0,0-2.49-2.75h0l-11.18.05a2.62,2.62,0,0,0-.57.06l.38-8.73a2.49,2.49,0,0,0-.71-1.85l-8.75-9a2.48,2.48,0,0,0-1.79-.76Z" transform="translate(-374.67 -278.54)"/><path class="cls-2" d="M391,320.06l-2-14.35v-1L377.89,301l-.66,11.46,11.09,10.23H392l0-2.33ZM382.09,311l-3.39-.26.43-7.39,3.41,5.07,3.6-2L384,309.71l4,9.5Z" transform="translate(-374.67 -278.54)"/><path class="cls-2" d="M407.45,301.25,404,306.34l.71-16.36L396,281l-8.82,10.33,4.38,22.7,1.87,5.92.47-.53,8.63-10.95-6,10.08v5.74h5.2l15.65-10.57,1.28-12.49ZM396,293.06l-.65,17.48-1.26-17.48-5.3-1.8,7.21-8.2v7.63l6.91.14Zm19.36,18.76-6.58-3.6-8.67,9.85,7.34-10.94.38-4.12h7.53l-5.44,4.21Z" transform="translate(-374.67 -278.54)"/></svg>